<svg id="visual" viewBox="0 0 1920 1080" width="1920" height="1080" xmlns="http://www.w3.org/2000/svg" xmlns:xlink="http://www.w3.org/1999/xlink" version="1.1"><rect x="0" y="0" width="1920" height="1080" fill="#001220"></rect><defs><linearGradient id="grad1_0" x1="43.8%" y1="0%" x2="100%" y2="100%"><stop offset="14.444444444444446%" stop-color="#001220" stop-opacity="1"></stop><stop offset="85.55555555555554%" stop-color="#001220" stop-opacity="1"></stop></linearGradient></defs><defs><linearGradient id="grad2_0" x1="0%" y1="0%" x2="56.3%" y2="100%"><stop offset="14.444444444444446%" stop-color="#001220" stop-opacity="1"></stop><stop offset="85.55555555555554%" stop-color="#001220" stop-opacity="1"></stop></linearGradient></defs><g transform="translate(1920, 0)"><path d="M0 702C-86.8 685.2 -173.7 668.4 -264.8 639.3C-356 610.2 -451.4 568.8 -496.4 496.4C-541.4 424 -535.9 320.6 -561.7 232.7C-587.6 144.8 -644.8 72.4 -702 0L0 0Z" fill="#4FACF7"></path></g><g transform="translate(0, 1080)"><path d="M0 -702C108.5 -711.1 216.9 -720.1 268.6 -648.6C320.4 -577 315.3 -424.9 343.7 -343.7C372 -262.4 433.6 -252.1 498.9 -206.6C564.2 -161.2 633.1 -80.6 702 0L0 0Z" fill="#4FACF7"></path></g></svg>