<svg id="visual" viewBox="0 0 900 600" width="900" height="600" xmlns="http://www.w3.org/2000/svg" xmlns:xlink="http://www.w3.org/1999/xlink" version="1.1"><rect x="0" y="0" width="900" height="600" fill="#001220"></rect><defs><linearGradient id="grad1_0" x1="33.3%" y1="0%" x2="100%" y2="100%"><stop offset="20%" stop-color="#001220" stop-opacity="1"></stop><stop offset="80%" stop-color="#001220" stop-opacity="1"></stop></linearGradient></defs><defs><linearGradient id="grad2_0" x1="0%" y1="0%" x2="66.7%" y2="100%"><stop offset="20%" stop-color="#001220" stop-opacity="1"></stop><stop offset="80%" stop-color="#001220" stop-opacity="1"></stop></linearGradient></defs><g transform="translate(900, 0)"><path d="M0 351.5C-52.9 353.8 -105.8 356 -134.5 324.8C-163.3 293.5 -167.9 228.7 -192.3 192.3C-216.8 155.9 -261.2 147.9 -291 120.5C-320.9 93.2 -336.2 46.6 -351.5 0L0 0Z" fill="#4FACF7"></path></g><g transform="translate(0, 600)"><path d="M0 -351.5C32 -315.6 63.9 -279.6 111.4 -268.8C158.8 -258.1 221.8 -272.4 248.6 -248.6C275.4 -224.7 266 -162.6 277.2 -114.8C288.3 -67 319.9 -33.5 351.5 0L0 0Z" fill="#4FACF7"></path></g></svg>